# Blender v2.78 (sub 0) OBJ File: ''
# www.blender.org
mtllib IronFurnace.mtl
o Cube
v 0.715393 -1.000000 -0.715393
v 0.715393 -1.000000 0.715393
v -0.715393 -1.000000 0.715392
v -0.715392 -1.000000 -0.715393
v 0.510933 1.961232 -0.510933
v 0.510933 1.961232 0.510933
v -0.510933 1.961232 0.510933
v -0.510933 1.961232 -0.510933
v 0.241701 1.950909 -0.241701
v 0.241701 1.950909 0.241701
v -0.241701 1.950909 0.241701
v -0.241701 1.950909 -0.241701
v 0.241701 0.437126 -0.241701
v 0.241701 0.437126 0.241701
v -0.241701 0.437126 0.241701
v -0.241701 0.437126 -0.241701
v 0.715393 -1.000000 -0.238464
v 0.715393 -1.000000 0.238464
v -0.715393 -1.000000 0.238464
v -0.715392 -1.000000 -0.238464
v 0.510933 1.961232 -0.170311
v 0.510933 1.961232 0.170311
v -0.510933 1.961232 0.170311
v -0.510933 1.961232 -0.170311
v 0.241701 1.950909 -0.080567
v 0.241701 1.950909 0.080567
v -0.241701 1.950909 0.080567
v -0.241701 1.950909 -0.080567
v 0.241701 0.437126 -0.080567
v 0.241701 0.437126 0.080567
v -0.241701 0.437126 0.080567
v -0.241701 0.437126 -0.080567
v 0.873825 -0.236029 -0.873825
v 0.710803 0.751048 -0.710803
v 0.873825 -0.236029 0.873825
v 0.710803 0.751048 0.710803
v -0.873825 -0.236029 0.873825
v -0.710803 0.751048 0.710803
v -0.873825 -0.236029 -0.873825
v -0.710803 0.751048 -0.710803
v -0.710803 0.751048 0.236934
v -0.994715 -0.236029 0.291275
v -0.710803 0.751048 -0.236934
v -0.994715 -0.236029 -0.291275
v 0.710803 0.751048 -0.236934
v 0.873825 -0.236029 -0.493832
v 0.710803 0.751048 0.236935
v 0.873825 -0.236029 0.493832
v -0.562003 0.626042 -0.236934
v -0.398981 -0.361035 -0.493832
v -0.562003 0.626042 0.236934
v -0.398981 -0.361035 0.493832
v 0.000000 -1.000000 -0.715393
v -0.000000 -1.000000 0.715393
v 0.000000 1.961232 -0.510933
v -0.000000 1.961232 0.510933
v -0.000000 1.950909 -0.241701
v -0.000000 1.950909 0.241701
v -0.000000 0.444423 -0.261340
v -0.000000 0.444423 0.261340
v -0.000000 0.444423 -0.087113
v -0.000000 0.444423 0.087114
v 0.000000 -1.000000 -0.238464
v 0.000000 -1.000000 0.238464
v 0.000000 0.783853 -0.768558
v 0.000000 -0.283428 -0.944827
v -0.000000 -0.283428 0.944827
v -0.000000 0.783853 0.768559
vn 0.0000 -1.0000 0.0000
vn 0.0383 0.9993 0.0000
vn 0.9866 0.1629 0.0000
vn -0.0515 0.1921 0.9800
vn -0.9866 0.1629 -0.0000
vn -0.0508 -0.2582 -0.9648
vn 1.0000 0.0000 0.0000
vn -0.0000 0.9993 0.0383
vn 0.0000 0.9993 -0.0383
vn -0.0383 0.9993 -0.0000
vn -0.0302 0.9995 0.0000
vn 0.0407 -0.0065 0.9992
vn -0.0407 -0.0065 -0.9992
vn -1.0000 0.0000 -0.0000
vn 0.9792 -0.2031 0.0000
vn 0.0977 -0.9952 0.0000
vn -0.9392 -0.3434 -0.0000
vn -0.9610 0.2764 -0.0000
vn -0.9516 -0.2876 0.1086
vn -0.9666 0.2310 0.1106
vn -0.0515 0.1921 -0.9800
vn -0.0783 0.1685 -0.9826
vn -0.9516 -0.2876 -0.1086
vn -0.9666 0.2310 -0.1106
vn -0.0508 -0.2582 0.9648
vn -0.0783 0.1685 0.9826
vn 0.0244 -0.2480 -0.9684
vn 0.0244 -0.2480 0.9684
vn -0.0977 0.9952 0.0000
vn 0.0783 0.1685 0.9826
vn 0.0508 -0.2582 0.9648
vn 0.0783 0.1685 -0.9826
vn 0.0515 0.1921 -0.9800
vn 0.0302 0.9995 0.0000
vn 0.0407 -0.0065 -0.9992
vn -0.0407 -0.0065 0.9992
vn 0.0508 -0.2582 -0.9648
vn 0.0515 0.1921 0.9800
usemtl Material
s off
f 64//1 54//1 3//1 19//1
f 23//2 7//2 11//2 27//2
f 47//3 22//3 6//3 36//3
f 68//4 56//4 7//4 38//4
f 43//5 24//5 8//5 40//5
f 66//6 53//6 4//6 39//6
f 27//7 11//7 15//7 31//7
f 55//8 8//8 12//8 57//8
f 56//9 6//9 10//9 58//9
f 21//10 5//10 9//10 25//10
f 62//11 31//11 15//11 60//11
f 57//12 12//12 16//12 59//12
f 58//13 10//13 14//13 60//13
f 25//14 9//14 13//14 29//14
f 10//14 26//14 30//14 14//14
f 26//14 25//14 29//14 30//14
f 59//11 16//11 32//11 61//11
f 61//11 32//11 31//11 62//11
f 6//10 22//10 26//10 10//10
f 22//10 21//10 25//10 26//10
f 12//7 28//7 32//7 16//7
f 28//7 27//7 31//7 32//7
f 38//5 7//5 23//5 41//5
f 41//5 23//5 24//5 43//5
f 34//3 5//3 21//3 45//3
f 45//3 21//3 22//3 47//3
f 8//2 24//2 28//2 12//2
f 24//2 23//2 27//2 28//2
f 53//1 63//1 20//1 4//1
f 63//1 64//1 19//1 20//1
f 17//15 46//15 48//15 18//15
f 45//16 47//16 51//16 49//16
f 1//15 33//15 46//15 17//15
f 33//3 34//3 45//3 46//3
f 19//17 42//17 44//17 20//17
f 42//18 41//18 43//18 44//18
f 3//19 37//19 42//19 19//19
f 37//20 38//20 41//20 42//20
f 55//21 65//21 40//21 8//21
f 65//22 66//22 39//22 40//22
f 20//23 44//23 39//23 4//23
f 44//24 43//24 40//24 39//24
f 54//25 67//25 37//25 3//25
f 67//26 68//26 38//26 37//26
f 18//15 48//15 35//15 2//15
f 48//3 47//3 36//3 35//3
f 50//3 49//3 51//3 52//3
f 47//27 48//27 52//27 51//27
f 46//28 45//28 49//28 50//28
f 48//29 46//29 50//29 52//29
f 35//30 36//30 68//30 67//30
f 2//31 35//31 67//31 54//31
f 34//32 33//32 66//32 65//32
f 5//33 34//33 65//33 55//33
f 17//1 18//1 64//1 63//1
f 1//1 17//1 63//1 53//1
f 29//34 61//34 62//34 30//34
f 13//34 59//34 61//34 29//34
f 11//35 58//35 60//35 15//35
f 9//36 57//36 59//36 13//36
f 30//34 62//34 60//34 14//34
f 7//9 56//9 58//9 11//9
f 5//8 55//8 57//8 9//8
f 33//37 1//37 53//37 66//37
f 36//38 6//38 56//38 68//38
f 18//1 2//1 54//1 64//1
