# Blender v2.78 (sub 0) OBJ File: ''
# www.blender.org
mtllib Stone2.mtl
o Icosphere
v 0.730593 0.423164 -0.332925
v 1.704517 0.414053 0.374665
v 0.358594 0.414053 0.811989
v -0.473253 0.414053 -0.332925
v 0.358594 0.414053 -1.477838
v 1.704517 0.414053 -1.040514
v 1.252682 1.272776 0.498159
v 0.357958 1.798429 0.404637
v -0.029693 1.617906 -0.851275
v 0.864913 1.430371 -1.395425
v 1.795460 1.205940 -0.332925
v 1.026040 2.001343 -0.332925
vn -0.0029 -1.0000 -0.0089
vn -0.0094 -1.0000 0.0000
vn 0.0076 -1.0000 -0.0055
vn 0.0076 -1.0000 0.0055
vn -0.0029 -1.0000 0.0089
vn 0.9935 -0.1141 0.0000
vn 0.3089 0.0258 0.9507
vn -0.7972 0.1701 0.5792
vn -0.8082 0.0449 -0.5872
vn 0.3081 -0.0766 -0.9483
vn 0.7973 0.3487 0.4927
vn 0.0654 0.2817 0.9573
vn -0.8836 0.4172 0.2128
vn -0.4512 0.2931 -0.8429
vn 0.7276 0.4087 -0.5509
vn 0.6642 0.6425 0.3821
vn 0.3800 0.7445 0.5490
vn -0.3258 0.9448 -0.0352
vn -0.0948 0.8828 -0.4600
vn 0.6473 0.6262 -0.4347
usemtl None
s off
f 1//1 2//1 3//1
f 2//2 1//2 6//2
f 1//3 3//3 4//3
f 1//4 4//4 5//4
f 1//5 5//5 6//5
f 2//6 6//6 11//6
f 3//7 2//7 7//7
f 4//8 3//8 8//8
f 5//9 4//9 9//9
f 6//10 5//10 10//10
f 2//11 11//11 7//11
f 3//12 7//12 8//12
f 4//13 8//13 9//13
f 5//14 9//14 10//14
f 6//15 10//15 11//15
f 7//16 11//16 12//16
f 8//17 7//17 12//17
f 9//18 8//18 12//18
f 10//19 9//19 12//19
f 11//20 10//20 12//20
