# Blender v2.78 (sub 0) OBJ File: ''
# www.blender.org
mtllib Energy aquire.mtl
o Cube
v 1.000000 -1.000000 -1.000000
v 1.000000 -1.000000 1.000000
v -1.000000 -1.000000 1.000000
v -1.000000 -1.000000 -1.000000
v 1.000000 0.729641 -0.999999
v 0.999999 0.729641 1.000001
v -1.000000 0.729641 1.000000
v -1.000000 0.729641 -1.000000
v 0.727706 1.000000 -0.727706
v 0.727706 1.000000 0.727707
v -0.727706 1.000000 0.727706
v -0.727706 1.000000 -0.727706
v 0.727706 1.000000 -0.727706
v 0.727706 1.000000 0.727707
v -0.727706 1.000000 0.727706
v -0.727706 1.000000 -0.727706
v 0.988954 1.542181 -0.988953
v 0.988952 1.542181 0.988954
v -0.988953 1.542181 0.988953
v -0.988953 1.542181 -0.988953
v 0.751903 -0.751903 -1.000000
v -0.751903 -0.751903 -1.000000
v 0.751904 0.271799 -1.000000
v -0.751903 0.271799 -1.000000
v 0.751903 -0.751903 0.022703
v -0.751903 -0.751903 0.022703
v 0.751904 0.271798 0.022704
v -0.751903 0.271798 0.022703
v 0.529180 1.542181 -0.529179
v 0.529179 1.542181 0.529180
v -0.529180 1.542181 0.529179
v -0.529179 1.542181 -0.529179
v 0.190139 0.995205 -0.190139
v 0.190139 0.995205 0.190139
v -0.190139 0.995205 0.190139
v -0.190139 0.995205 -0.190139
v 1.000000 -0.509427 -0.432746
v 1.000000 -0.509427 0.432746
v 1.000000 0.239068 -0.432746
v 1.000000 0.239068 0.432746
v 1.815317 -0.509427 -0.432746
v 1.815317 -0.509427 0.432746
v 1.815317 0.239068 -0.432745
v 1.815317 0.239068 0.432747
v 1.815317 -0.997868 -0.997535
v 1.815317 -0.997868 0.997535
v 1.815318 0.727509 -0.997534
v 1.815316 0.727509 0.997536
v 3.698315 -0.997868 -0.997534
v 3.698315 -0.997868 0.997536
v 3.698316 0.727509 -0.997533
v 3.698315 0.727509 0.997536
v 0.988954 1.542181 -0.988953
v 0.988952 1.542181 0.988954
v -0.988953 1.542181 0.988953
v -0.988953 1.542181 -0.988953
v 0.529180 1.542181 -0.529179
v 0.529179 1.542181 0.529180
v -0.529180 1.542181 0.529179
v -0.529179 1.542181 -0.529179
v 2.034796 -0.796761 -0.997534
v 2.034796 0.526402 -0.997534
v 2.611456 -0.796761 -0.997534
v 2.611457 0.526402 -0.997534
v 2.034796 -0.796761 -0.740702
v 2.034796 0.526402 -0.740702
v 2.611456 -0.796761 -0.740702
v 2.611456 0.526402 -0.740701
vn 0.0000 -1.0000 0.0000
vn -0.0000 0.7096 0.7046
vn 1.0000 0.0000 0.0000
vn -0.0000 -0.0000 1.0000
vn -1.0000 -0.0000 -0.0000
vn 0.0000 0.0000 -1.0000
vn 0.7046 0.7096 0.0000
vn -0.7046 0.7096 -0.0000
vn 0.0000 0.7096 -0.7046
vn -0.0000 -0.4341 0.9009
vn 0.9009 -0.4341 0.0000
vn -0.9009 -0.4341 -0.0000
vn 0.0000 -0.4341 -0.9009
vn -0.0000 1.0000 0.0000
vn 0.0000 0.5268 -0.8500
vn -0.8500 0.5268 -0.0000
vn 0.8500 0.5268 0.0000
vn -0.0000 0.5268 0.8500
usemtl Material
s off
f 1//1 2//1 3//1 4//1
f 7//2 6//2 10//2 11//2
f 5//3 6//3 40//3 39//3
f 2//4 6//4 7//4 3//4
f 3//5 7//5 8//5 4//5
f 1//6 4//6 22//6 21//6
f 12//4 11//4 15//4 16//4
f 6//7 5//7 9//7 10//7
f 8//8 7//8 11//8 12//8
f 5//9 8//9 12//9 9//9
f 15//10 14//10 18//10 19//10
f 9//4 12//4 16//4 13//4
f 11//4 10//4 14//4 15//4
f 10//4 9//4 13//4 14//4
f 18//4 17//4 53//4 54//4
f 14//11 13//11 17//11 18//11
f 16//12 15//12 19//12 20//12
f 13//13 16//13 20//13 17//13
f 22//3 24//3 28//3 26//3
f 5//6 1//6 21//6 23//6
f 8//6 5//6 23//6 24//6
f 4//6 8//6 24//6 22//6
f 27//6 25//6 26//6 28//6
f 21//14 22//14 26//14 25//14
f 24//1 23//1 27//1 28//1
f 23//5 21//5 25//5 27//5
f 31//15 30//15 34//15 35//15
f 19//4 18//4 54//4 55//4
f 29//4 30//4 58//4 57//4
f 30//4 31//4 59//4 58//4
f 33//14 36//14 35//14 34//14
f 30//16 29//16 33//16 34//16
f 32//17 31//17 35//17 36//17
f 29//18 32//18 36//18 33//18
f 39//14 40//14 44//14 43//14
f 6//3 2//3 38//3 40//3
f 1//3 5//3 39//3 37//3
f 2//3 1//3 37//3 38//3
f 44//5 42//5 46//5 48//5
f 37//6 39//6 43//6 41//6
f 40//4 38//4 42//4 44//4
f 38//1 37//1 41//1 42//1
f 47//14 48//14 52//14 51//14
f 42//5 41//5 45//5 46//5
f 43//5 44//5 48//5 47//5
f 41//5 43//5 47//5 45//5
f 49//3 51//3 52//3 50//3
f 49//6 45//6 61//6 63//6
f 48//4 46//4 50//4 52//4
f 46//1 45//1 49//1 50//1
f 55//14 54//14 58//14 59//14
f 54//14 53//14 57//14 58//14
f 56//14 55//14 59//14 60//14
f 53//14 56//14 60//14 57//14
f 31//4 32//4 60//4 59//4
f 32//4 29//4 57//4 60//4
f 20//4 19//4 55//4 56//4
f 17//4 20//4 56//4 53//4
f 62//1 64//1 68//1 66//1
f 45//6 47//6 62//6 61//6
f 47//6 51//6 64//6 62//6
f 51//6 49//6 63//6 64//6
f 65//6 66//6 68//6 67//6
f 61//3 62//3 66//3 65//3
f 63//14 61//14 65//14 67//14
f 64//5 63//5 67//5 68//5
